<svg viewBox="0 0 600 400" xmlns="http://www.w3.org/2000/svg" role="img" aria-labelledby="t1 d1">
  <title id="t1">The Secret of Monkey Island</title>
  <desc id="d1">Jaquette illustrative : ciel nocturne degrade et silhouette d'ile avec palmier, teintes graphite et cyan-vapeur.</desc>
  <defs>
    <linearGradient id="sky1" x1="0" y1="0" x2="0" y2="1">
      <stop offset="0%" stop-color="#14171a"/>
      <stop offset="100%" stop-color="#232a2e"/>
    </linearGradient>
    <linearGradient id="sea1" x1="0" y1="0" x2="0" y2="1">
      <stop offset="0%" stop-color="#1d2226"/>
      <stop offset="100%" stop-color="#0a0c0e"/>
    </linearGradient>
  </defs>

  <rect width="600" height="400" fill="url(#sky1)"/>

  <circle cx="500" cy="80" r="34" fill="#e4e9ea" opacity="0.85"/>
  <circle cx="486" cy="70" r="30" fill="#14171a" opacity="0.9"/>

  <g fill="#e4e9ea">
    <circle cx="60" cy="50" r="1.6" opacity="0.8"/>
    <circle cx="120" cy="90" r="1.2" opacity="0.6"/>
    <circle cx="200" cy="40" r="1.8" opacity="0.7"/>
    <circle cx="330" cy="70" r="1.3" opacity="0.5"/>
    <circle cx="410" cy="30" r="1.5" opacity="0.7"/>
    <circle cx="150" cy="140" r="1.1" opacity="0.5"/>
    <circle cx="30" cy="160" r="1.4" opacity="0.6"/>
  </g>

  <rect y="260" width="600" height="140" fill="url(#sea1)"/>
  <path d="M0,262 Q50,254 100,262 T200,262 T300,262 T400,262 T500,262 T600,262" fill="none" stroke="#5fd4c4" stroke-opacity="0.4" stroke-width="2"/>
  <path d="M0,278 Q50,270 100,278 T200,278 T300,278 T400,278 T500,278 T600,278" fill="none" stroke="#5fd4c4" stroke-opacity="0.22" stroke-width="2"/>

  <polygon points="60,270 260,270 220,190 170,150 130,190" fill="#0a0c0e"/>
  <line x1="205" y1="150" x2="205" y2="80" stroke="#0a0c0e" stroke-width="6"/>
  <path d="M205,90 C170,70 150,90 140,80 M205,90 C240,70 260,90 270,80 M205,100 C175,90 160,110 150,105 M205,100 C235,90 250,110 260,105" fill="none" stroke="#0a0c0e" stroke-width="6" stroke-linecap="round"/>

  <text x="300" y="330" text-anchor="middle" font-family="'Cascadia Code', Consolas, monospace" font-size="30" fill="#e4e9ea" font-weight="700" letter-spacing="1">THE SECRET OF</text>
  <text x="300" y="368" text-anchor="middle" font-family="'Cascadia Code', Consolas, monospace" font-size="30" fill="#e4e9ea" font-weight="700" letter-spacing="1">MONKEY ISLAND</text>
  <text x="300" y="390" text-anchor="middle" font-family="'Cascadia Code', Consolas, monospace" font-size="14" fill="#5fd4c4" letter-spacing="2">1990</text>
</svg>
